<?xml version="1.0" encoding="utf-8"?>
<!-- Generator: Adobe Illustrator 25.2.1, SVG Export Plug-In . SVG Version: 6.00 Build 0)  -->
<svg version="1.1" xmlns="http://www.w3.org/2000/svg" xmlns:xlink="http://www.w3.org/1999/xlink" x="0px" y="0px"
	 viewBox="0 0 612 792" style="enable-background:new 0 0 612 792;" xml:space="preserve">
<style type="text/css">
	.st0{fill:#9E9E9E;}
	.st1{fill:url(#SVGID_1_);}
	.st2{enable-background:new    ;}
	.st3{fill:#36C6F4;}
	.st4{fill:#6B6C6C;}
</style>
<g id="Capa_4">
	<g>
		<path class="st0" d="M72.52,251.51L72.52,251.51c13.51-48.71,41.81-91.24,79.78-122.49c11.02-9.06,22.85-17.18,35.36-24.21v16.57
			c-9.21,5.61-17.99,11.86-26.27,18.68c-34.39,28.3-60.35,66.44-73.57,110.12l-0.24,0.8l-0.42,1.44l-0.26,0.9l-0.02,0.09l-0.41,1.46
			l-0.39,1.41l-0.04,0.15c-0.26,0.94-0.51,1.9-0.75,2.84l0,0c-0.37,1.42-0.72,2.83-1.05,4.26l-0.09,0.41
			c-0.17,0.72-0.33,1.44-0.5,2.17l-0.19,0.84l-0.22,0.97c-0.13,0.59-0.26,1.18-0.38,1.79l-0.15,0.76c-0.13,0.59-0.24,1.19-0.36,1.79
			c-2.4,12.21-3.8,24.59-4.18,37.02l0,0c-0.15,4.83-0.14,9.66,0.02,14.49l0.01,0.56v0.09l0.02,0.46l0.02,0.56v0.11l0.02,0.44
			l0.02,0.55l0.01,0.14l0.02,0.42l0.02,0.55l0.01,0.16l0.02,0.4l0.03,0.55l0.01,0.19l0.02,0.37l0.03,0.55l0.02,0.22l0.02,0.34
			l0.04,0.56l0.01,0.24l0.02,0.31c0.3,4.46,0.72,8.91,1.29,13.35c6.43,51.64,30.1,97.92,65.08,132.91
			c41.3,41.3,98.36,66.85,161.38,66.85c10.96,0,21.75-0.77,32.3-2.27V360.11h-64.59v85.42c0,3.97-3.21,7.18-7.18,7.18h-86.33
			c-3.97,0-7.18-3.21-7.18-7.18V263.3h0.03v-65.9h-0.06v-20.29c-1.88-0.87-3.59-2.06-5.04-3.51h-0.02
			c-3.13-3.13-5.07-7.47-5.07-12.24c0-4.76,1.94-9.09,5.07-12.22v-0.02c3.13-3.13,7.46-5.07,12.24-5.07s9.11,1.94,12.24,5.07v0.02
			c3.13,3.13,5.07,7.46,5.07,12.22c0,4.78-1.95,9.11-5.07,12.24h-0.02c-1.45,1.45-3.15,2.64-5.04,3.51v4.39v15.91v65.89h0.02v175.06
			h71.97v-85.42c0-3.97,3.21-7.18,7.18-7.18h78.95c3.96,0,7.18,3.21,7.18,7.18v186.94v14.64l0,0c-1.18,0.24-2.36,0.45-3.55,0.66
			l-0.02,0.01c-3.57,0.64-7.17,1.2-10.78,1.68l0,0c-10.57,1.41-21.35,2.13-32.3,2.13c-66.98,0-127.64-27.15-171.53-71.05
			c-39.66-39.66-65.66-93.01-70.3-152.34h-0.01c-1.81-22.91-0.37-45.93,4.26-68.39l0.01-0.07l0.03-0.14
			c0.14-0.69,0.29-1.38,0.44-2.06l0.2-0.88c0.12-0.55,0.24-1.1,0.37-1.64L70,261.5l0.4-1.71l0.21-0.88
			c0.14-0.58,0.29-1.16,0.43-1.74l0.2-0.79c0.18-0.71,0.37-1.42,0.55-2.12l0.03-0.13l0.01-0.05
			C72.06,253.21,72.29,252.36,72.52,251.51L72.52,251.51z M184.62,157.24L184.62,157.24c-1.06-1.05-2.53-1.7-4.13-1.7
			c-1.61,0-3.07,0.66-4.12,1.7h-0.01c-1.05,1.05-1.7,2.52-1.7,4.14c0,1.61,0.66,3.07,1.71,4.12h-0.01c1.05,1.05,2.51,1.7,4.13,1.7
			c1.62,0,3.09-0.65,4.14-1.7h-0.01c1.05-1.05,1.7-2.52,1.7-4.12C186.32,159.76,185.67,158.29,184.62,157.24L184.62,157.24z"/>
	</g>
</g>
<g id="Capa_3">
	
		<radialGradient id="SVGID_1_" cx="404.2452" cy="491.055" r="190.395" gradientTransform="matrix(1 0 0 -1 0 792)" gradientUnits="userSpaceOnUse">
		<stop  offset="0.1257" style="stop-color:#88D3E3"/>
		<stop  offset="0.2251" style="stop-color:#82D2E5"/>
		<stop  offset="0.3318" style="stop-color:#71CEE8"/>
		<stop  offset="0.4416" style="stop-color:#4DC8EF"/>
		<stop  offset="0.4832" style="stop-color:#33C6F4"/>
		<stop  offset="0.5632" style="stop-color:#36C2F1"/>
		<stop  offset="0.6433" style="stop-color:#39B9EB"/>
		<stop  offset="0.7236" style="stop-color:#4287C7"/>
		<stop  offset="0.8039" style="stop-color:#7185C3"/>
		<stop  offset="0.8843" style="stop-color:#6572B1"/>
		<stop  offset="0.9638" style="stop-color:#456FB6"/>
		<stop  offset="1" style="stop-color:#4563AE"/>
	</radialGradient>
	<path class="st1" d="M439.29,453.63v-20.29v-192.2v-20.4v-0.07v-0.08v-0.09v-0.09v-0.1v-0.11v-0.12v-0.13v-0.14v-0.15v-0.16v-0.16
		v-0.17v-0.18v-0.19v-0.09v-31.4c0-3.97-3.21-7.18-7.18-7.18h-86.33c-3.97,0-7.18,3.21-7.18,7.18v83.95h-64.59V90.47
		c10.55-1.5,21.34-2.27,32.3-2.27c63.03,0,120.09,25.55,161.38,66.85c37.47,37.47,61.96,87.9,66.2,143.99l0,0
		c0.11,1.4,0.2,2.82,0.28,4.22l0.02,0.38l0.02,0.38l0.02,0.26l0.01,0.12v0.05c1.34,25.59-1.62,51.27-8.78,75.94
		c-13.25,45.49-40.26,85.1-76.25,114.02c-7.7,6.19-15.81,11.89-24.28,17.05v16.6c11.72-6.58,22.84-14.12,33.26-22.49
		c36.13-29.05,63.77-68.24,78.58-113.25l0,0l0.02-0.08c2.01-6.12,3.78-12.34,5.31-18.66c3.34-13,6.32-29.63,6.41-54.97
		c0.22-0.69,0.34-1.42,0.34-2.19h0.03c0-8.29-0.41-16.48-1.23-24.56v-0.03l0,0c-5.76-57.17-31.37-108.49-69.82-146.94
		c-43.9-43.9-104.54-71.06-171.54-71.06c-10.95,0-21.73,0.74-32.3,2.14v-0.01c-4.81,0.64-9.6,1.44-14.36,2.36l0,0l-0.02,0.01v14.64
		l0.02-0.01v185.47c0,3.97,3.21,7.18,7.18,7.18h78.95c3.97,0,7.18-3.21,7.18-7.18v-83.95h71.97v24.22v22.43v192.2v20.29
		c-1.88,0.87-3.59,2.05-5.04,3.51h-0.02c-3.13,3.13-5.07,7.47-5.07,12.24c0,4.76,1.94,9.08,5.07,12.22v0.02
		c3.13,3.13,7.46,5.07,12.24,5.07s9.11-1.94,12.24-5.07v-0.02c3.13-3.13,5.07-7.45,5.07-12.22c0-4.78-1.95-9.11-5.07-12.24h-0.02
		c-1.45-1.45-3.15-2.65-5.04-3.51v0.01H439.29z M436.25,473.52l-0.02-0.01c-1.05,1.05-2.52,1.71-4.12,1.71
		c-1.61,0-3.07-0.66-4.12-1.71l-0.01,0.01c-1.05-1.05-1.7-2.52-1.7-4.14c0-1.62,0.65-3.07,1.71-4.12l-0.01-0.01
		c1.05-1.05,2.52-1.7,4.14-1.7c1.62,0,3.08,0.65,4.14,1.7l-0.02,0.01c1.05,1.05,1.71,2.51,1.71,4.12
		C437.95,471.01,437.31,472.47,436.25,473.52z"/>
</g>
<g id="Capa_2">
	<g class="st2">
		<path class="st3" d="M107.34,623.91v41.7h-6.84v-18.24H80.88v18.24h-6.84v-41.7h6.84v17.88h19.62v-17.88H107.34z"/>
		<path class="st3" d="M157.74,632.55l-20.28,48.6h-7.08l6.72-16.08l-13.02-32.52h7.62l9.3,25.2l9.66-25.2H157.74z"/>
		<path class="st3" d="M174.33,640.11c1.38-2.56,3.26-4.55,5.64-5.97c2.38-1.42,5.03-2.13,7.95-2.13c2.16,0,4.29,0.47,6.39,1.41
			c2.1,0.94,3.77,2.19,5.01,3.75v-15.96h6.9v44.4h-6.9v-4.98c-1.12,1.6-2.67,2.92-4.65,3.96c-1.98,1.04-4.25,1.56-6.81,1.56
			c-2.88,0-5.51-0.73-7.89-2.19c-2.38-1.46-4.26-3.5-5.64-6.12s-2.07-5.59-2.07-8.91S172.95,642.67,174.33,640.11z M197.91,643.11
			c-0.94-1.68-2.17-2.96-3.69-3.84c-1.52-0.88-3.16-1.32-4.92-1.32c-1.76,0-3.4,0.43-4.92,1.29c-1.52,0.86-2.75,2.12-3.69,3.78
			c-0.94,1.66-1.41,3.63-1.41,5.91c0,2.28,0.47,4.28,1.41,6c0.94,1.72,2.18,3.03,3.72,3.93c1.54,0.9,3.17,1.35,4.89,1.35
			c1.76,0,3.4-0.44,4.92-1.32c1.52-0.88,2.75-2.17,3.69-3.87c0.94-1.7,1.41-3.69,1.41-5.97
			C199.32,646.77,198.85,644.79,197.91,643.11z"/>
		<path class="st3" d="M237.69,633.42c1.66-0.94,3.63-1.41,5.91-1.41v7.08h-1.74c-2.68,0-4.71,0.68-6.09,2.04
			c-1.38,1.36-2.07,3.72-2.07,7.08v17.4h-6.84v-33.06h6.84v4.8C234.7,635.67,236.03,634.36,237.69,633.42z"/>
		<path class="st3" d="M267.42,664.02c-2.52-1.42-4.5-3.42-5.94-6s-2.16-5.57-2.16-8.97c0-3.36,0.74-6.34,2.22-8.94
			c1.48-2.6,3.5-4.6,6.06-6c2.56-1.4,5.42-2.1,8.58-2.1c3.16,0,6.02,0.7,8.58,2.1c2.56,1.4,4.58,3.4,6.06,6
			c1.48,2.6,2.22,5.58,2.22,8.94c0,3.36-0.76,6.34-2.28,8.94c-1.52,2.6-3.59,4.61-6.21,6.03c-2.62,1.42-5.51,2.13-8.67,2.13
			C272.76,666.15,269.94,665.44,267.42,664.02z M280.83,658.95c1.54-0.84,2.79-2.1,3.75-3.78c0.96-1.68,1.44-3.72,1.44-6.12
			c0-2.4-0.46-4.43-1.38-6.09c-0.92-1.66-2.14-2.91-3.66-3.75c-1.52-0.84-3.16-1.26-4.92-1.26c-1.76,0-3.39,0.42-4.89,1.26
			c-1.5,0.84-2.69,2.09-3.57,3.75c-0.88,1.66-1.32,3.69-1.32,6.09c0,3.56,0.91,6.31,2.73,8.25c1.82,1.94,4.11,2.91,6.87,2.91
			C277.64,660.21,279.29,659.79,280.83,658.95z"/>
		<path class="st3" d="M331.59,633.54c1.98,1.02,3.53,2.29,4.65,3.81v-4.8h6.9v33.6c0,3.04-0.64,5.75-1.92,8.13
			c-1.28,2.38-3.13,4.25-5.55,5.61c-2.42,1.36-5.31,2.04-8.67,2.04c-4.48,0-8.2-1.05-11.16-3.15c-2.96-2.1-4.64-4.95-5.04-8.55h6.78
			c0.52,1.72,1.63,3.11,3.33,4.17c1.7,1.06,3.73,1.59,6.09,1.59c2.76,0,4.99-0.84,6.69-2.52c1.7-1.68,2.55-4.12,2.55-7.32v-5.52
			c-1.16,1.56-2.73,2.87-4.71,3.93c-1.98,1.06-4.23,1.59-6.75,1.59c-2.88,0-5.51-0.73-7.89-2.19c-2.38-1.46-4.26-3.5-5.64-6.12
			s-2.07-5.59-2.07-8.91s0.69-6.26,2.07-8.82c1.38-2.56,3.26-4.55,5.64-5.97s5.01-2.13,7.89-2.13
			C327.34,632.01,329.61,632.52,331.59,633.54z M334.83,643.11c-0.94-1.68-2.17-2.96-3.69-3.84c-1.52-0.88-3.16-1.32-4.92-1.32
			c-1.76,0-3.4,0.43-4.92,1.29c-1.52,0.86-2.75,2.12-3.69,3.78c-0.94,1.66-1.41,3.63-1.41,5.91c0,2.28,0.47,4.28,1.41,6
			c0.94,1.72,2.18,3.03,3.72,3.93c1.54,0.9,3.17,1.35,4.89,1.35c1.76,0,3.4-0.44,4.92-1.32c1.52-0.88,2.75-2.17,3.69-3.87
			c0.94-1.7,1.41-3.69,1.41-5.97C336.24,646.77,335.77,644.79,334.83,643.11z"/>
		<path class="st3" d="M393.83,651.63h-25.26c0.2,2.64,1.18,4.76,2.94,6.36c1.76,1.6,3.92,2.4,6.48,2.4c3.68,0,6.28-1.54,7.8-4.62
			h7.38c-1,3.04-2.81,5.53-5.43,7.47c-2.62,1.94-5.87,2.91-9.75,2.91c-3.16,0-5.99-0.71-8.49-2.13s-4.46-3.42-5.88-6
			s-2.13-5.57-2.13-8.97s0.69-6.39,2.07-8.97s3.32-4.57,5.82-5.97c2.5-1.4,5.37-2.1,8.61-2.1c3.12,0,5.9,0.68,8.34,2.04
			c2.44,1.36,4.34,3.27,5.7,5.73c1.36,2.46,2.04,5.29,2.04,8.49C394.08,649.51,394,650.63,393.83,651.63z M386.94,646.11
			c-0.04-2.52-0.94-4.54-2.7-6.06s-3.94-2.28-6.54-2.28c-2.36,0-4.38,0.75-6.06,2.25c-1.68,1.5-2.68,3.53-3,6.09H386.94z"/>
		<path class="st3" d="M436.11,633.63c2.06,1.08,3.67,2.68,4.83,4.8s1.74,4.68,1.74,7.68v19.5h-6.78v-18.48
			c0-2.96-0.74-5.23-2.22-6.81c-1.48-1.58-3.5-2.37-6.06-2.37s-4.59,0.79-6.09,2.37c-1.5,1.58-2.25,3.85-2.25,6.81v18.48h-6.84
			v-33.06h6.84v3.78c1.12-1.36,2.55-2.42,4.29-3.18c1.74-0.76,3.59-1.14,5.55-1.14C431.71,632.01,434.04,632.55,436.11,633.63z"/>
		<path class="st4" d="M493.52,644.4c-1.18,2.1-2.96,3.78-5.34,5.04s-5.29,1.89-8.73,1.89h-5.82v14.28h-11.76v-42.3h17.58
			c3.4,0,6.29,0.6,8.67,1.8c2.38,1.2,4.17,2.86,5.37,4.98c1.2,2.12,1.8,4.56,1.8,7.32C495.29,639.97,494.7,642.3,493.52,644.4z
			 M483.29,637.41c0-3.08-1.66-4.62-4.98-4.62h-4.68v9.18h4.68C481.63,641.97,483.29,640.45,483.29,637.41z"/>
		<path class="st4" d="M509.69,648.33c2.48-2.2,4.56-4.47,6.24-6.81c1.68-2.34,2.52-4.57,2.52-6.69c0-1.28-0.29-2.28-0.87-3
			c-0.58-0.72-1.43-1.08-2.55-1.08c-1.16,0-2.06,0.49-2.7,1.47c-0.64,0.98-0.94,2.41-0.9,4.29h-11.4c0.12-3.56,0.9-6.51,2.34-8.85
			c1.44-2.34,3.32-4.06,5.64-5.16c2.32-1.1,4.9-1.65,7.74-1.65c4.92,0,8.58,1.22,10.98,3.66c2.4,2.44,3.6,5.6,3.6,9.48
			c0,4.16-1.39,8.06-4.17,11.7c-2.78,3.64-6.25,6.9-10.41,9.78h15v9.54h-30.6v-8.82C504.03,653.15,507.21,650.53,509.69,648.33z"/>
		<path class="st4" d="M568.82,644.4c-1.18,2.1-2.96,3.78-5.34,5.04s-5.29,1.89-8.73,1.89h-5.82v14.28h-11.76v-42.3h17.58
			c3.4,0,6.29,0.6,8.67,1.8c2.38,1.2,4.17,2.86,5.37,4.98c1.2,2.12,1.8,4.56,1.8,7.32C570.59,639.97,570,642.3,568.82,644.4z
			 M558.59,637.41c0-3.08-1.66-4.62-4.98-4.62h-4.68v9.18h4.68C556.93,641.97,558.59,640.45,558.59,637.41z"/>
	</g>
</g>
</svg>
