<?xml version="1.0" encoding="utf-8"?>
<!-- Generator: Adobe Illustrator 25.2.1, SVG Export Plug-In . SVG Version: 6.00 Build 0)  -->
<svg version="1.1" id="Layer_1" xmlns="http://www.w3.org/2000/svg" xmlns:xlink="http://www.w3.org/1999/xlink" x="0px" y="0px"
	 viewBox="0 0 128 128" style="enable-background:new 0 0 128 128;" xml:space="preserve">
<style type="text/css">
	.st0{fill:#EE2F2E;}
	.st1{fill:url(#SVGID_1_);}
	.st2{fill:#868786;}
	.st3{fill:url(#SVGID_2_);}
	.st4{fill:url(#SVGID_3_);}
	.st5{fill:#BCBEC0;}
</style>
<g>
	<path class="st0" d="M-718.26-87.55l85.78,209.08l74.79-0.48l91.65-231.77c1.14-2.9,3.93-4.67,6.87-4.66l0,0l85.63-0.55
		c-12.01-36.55-32.57-69.21-59.32-95.6c-43.62-43.07-103.67-69.49-169.81-69.07s-125.85,27.62-168.92,71.24
		c-15.23,15.42-28.37,32.9-38.99,51.98l-16.55,0.11c11.87-23.03,27.15-44.03,45.19-62.3c45.68-46.27,109.01-75.11,179.17-75.56
		c70.15-0.45,133.85,27.58,180.12,73.26c32.67,32.26,56.66,73.32,68.09,119.38l-8.82,0.06l-6.16,0.04l-84.24,0.54l-91.9,232.4
		c-0.93,2.98-3.69,5.15-6.98,5.17l-84.67,0.54l0-0.02c-2.91,0.02-5.67-1.71-6.84-4.56l-87.64-213.6c-4.62-0.14-8.79-2.06-11.88-5.11
		l-0.02,0c-3.23-3.19-5.24-7.61-5.27-12.51c-0.03-4.88,1.93-9.32,5.11-12.56l0.02-0.02c3.19-3.23,7.61-5.24,12.49-5.28
		c4.9-0.03,9.34,1.93,12.58,5.11l0,0.02c3.23,3.2,5.24,7.61,5.27,12.49C-713.46-95.04-715.28-90.75-718.26-87.55L-718.26-87.55z
		 M-726.61-104.71l-0.01,0.01c-1.08-1.08-2.57-1.75-4.23-1.75c-1.66,0-3.16,0.67-4.24,1.74c-1.07,1.08-1.74,2.58-1.74,4.24
		c0,1.65,0.66,3.15,1.75,4.23l-0.01,0.01c1.08,1.07,2.58,1.74,4.24,1.74c1.65,0,3.15-0.67,4.23-1.75c1.08-1.09,1.75-2.57,1.75-4.23
		C-724.88-102.13-725.55-103.63-726.61-104.71L-726.61-104.71z"/>
	<linearGradient id="SVGID_1_" gradientUnits="userSpaceOnUse" x1="-855.2198" y1="28.2228" x2="-347.0948" y2="28.2228">
		<stop  offset="0" style="stop-color:#AFAFB1"/>
		<stop  offset="0.2501" style="stop-color:#919193"/>
		<stop  offset="0.5526" style="stop-color:#747476"/>
		<stop  offset="0.8132" style="stop-color:#616163"/>
		<stop  offset="1" style="stop-color:#5B5B5D"/>
	</linearGradient>
	<path class="st1" d="M-447.16-156.54c4.89-0.03,9.35,1.93,12.58,5.11l0,0.02c3.23,3.2,5.24,7.61,5.27,12.49
		c0.03,4.9-1.93,9.35-5.11,12.58c-3.19,3.24-7.62,5.24-12.51,5.28c-4.88,0.03-9.32-1.93-12.56-5.12l-0.02,0
		c-1.5-1.48-2.74-3.23-3.64-5.17l-76.18,0.49l-48.77,143.9c-1.29,3.84-5.44,5.89-9.27,4.6c-2.22-0.75-3.85-2.45-4.56-4.51
		l-50.6-143.26l-171.45,1.1c-10.94,27.69-16.87,57.9-16.67,89.5c0.42,66.14,27.61,125.85,71.23,168.91
		c43.62,43.07,103.67,69.49,169.81,69.07c66.14-0.42,125.85-27.61,168.92-71.24c43.06-43.62,69.49-103.67,69.07-169.81
		c-0.1-15.84-1.75-31.3-4.77-46.26l14.8-0.09c2.86,14.99,4.4,30.45,4.51,46.26c0.45,70.15-27.58,133.85-73.26,180.12
		c-45.68,46.27-109.01,75.12-179.17,75.56c-70.16,0.45-133.85-27.59-180.12-73.27c-46.27-45.68-75.11-109.01-75.56-179.17
		c-0.24-37.09,7.48-72.38,21.57-104.23l6.61-0.04l9.43-0.06l170.15-1.09l0,0.04c3.04-0.02,5.89,1.87,6.96,4.9l45.31,128.26
		l43.44-128.18c0.76-3.23,3.65-5.64,7.11-5.66l81.38-0.52c0.87-1.94,2.08-3.69,3.56-5.19l0.02-0.02c3.19-3.23,7.61-5.24,12.49-5.27
		L-447.16-156.54z M-442.19-142.05l-0.01,0.01c-1.08-1.08-2.57-1.75-4.23-1.75c-1.66,0-3.16,0.66-4.24,1.73
		c-1.07,1.08-1.74,2.58-1.74,4.24c0,1.65,0.67,3.15,1.75,4.23l-0.01,0.01c1.08,1.07,2.58,1.74,4.24,1.74c1.65,0,3.15-0.67,4.23-1.75
		c1.08-1.08,1.75-2.57,1.75-4.23C-440.46-139.47-441.12-140.98-442.19-142.05L-442.19-142.05z"/>
	<g>
		<path class="st0" d="M-787.36,275.03l-15.4,41h-7.79l-15.46-41h7.2l12.15,34.1l12.21-34.1H-787.36z"/>
		<path class="st0" d="M-740.39,302.29h-24.84c0.2,2.6,1.16,4.68,2.89,6.25c1.73,1.57,3.85,2.36,6.37,2.36
			c3.62,0,6.17-1.51,7.67-4.54h7.26c-0.98,2.99-2.76,5.44-5.34,7.35c-2.58,1.91-5.77,2.86-9.59,2.86c-3.11,0-5.89-0.7-8.35-2.09
			c-2.46-1.4-4.39-3.36-5.78-5.9c-1.4-2.54-2.09-5.48-2.09-8.82c0-3.34,0.68-6.28,2.04-8.82c1.36-2.54,3.26-4.49,5.72-5.87
			c2.46-1.38,5.28-2.07,8.47-2.07c3.07,0,5.8,0.67,8.2,2.01c2.4,1.34,4.27,3.22,5.6,5.63c1.34,2.42,2.01,5.2,2.01,8.35
			C-740.16,300.2-740.24,301.3-740.39,302.29z M-747.18,296.86c-0.04-2.48-0.92-4.46-2.66-5.96c-1.73-1.49-3.87-2.24-6.43-2.24
			c-2.32,0-4.31,0.74-5.96,2.21c-1.65,1.47-2.64,3.47-2.95,5.99H-747.18z"/>
		<path class="st0" d="M-715.03,272.37v43.66h-6.73v-43.66H-715.03z"/>
		<path class="st0" d="M-688.59,314.47c-2.48-1.4-4.42-3.36-5.84-5.9s-2.12-5.48-2.12-8.82c0-3.3,0.73-6.23,2.18-8.79
			c1.46-2.56,3.44-4.52,5.96-5.9c2.52-1.38,5.33-2.07,8.44-2.07c3.11,0,5.92,0.69,8.44,2.07c2.52,1.38,4.5,3.34,5.96,5.9
			c1.46,2.56,2.18,5.49,2.18,8.79s-0.75,6.23-2.24,8.79c-1.5,2.56-3.53,4.53-6.11,5.93c-2.58,1.4-5.42,2.09-8.53,2.09
			C-683.34,316.56-686.12,315.87-688.59,314.47z M-675.41,309.48c1.51-0.83,2.74-2.07,3.69-3.72c0.94-1.65,1.42-3.66,1.42-6.02
			c0-2.36-0.45-4.36-1.36-5.99c-0.91-1.63-2.1-2.86-3.6-3.69c-1.5-0.83-3.11-1.24-4.84-1.24c-1.73,0-3.33,0.41-4.81,1.24
			s-2.65,2.06-3.51,3.69c-0.87,1.63-1.3,3.63-1.3,5.99c0,3.5,0.89,6.21,2.68,8.11c1.79,1.91,4.04,2.86,6.76,2.86
			C-678.54,310.72-676.92,310.31-675.41,309.48z"/>
		<path class="st0" d="M-645.14,290.93c1.36-2.54,3.23-4.49,5.63-5.87c2.4-1.38,5.15-2.07,8.26-2.07c3.93,0,7.19,0.93,9.76,2.8
			c2.58,1.87,4.32,4.53,5.22,7.99h-7.26c-0.59-1.61-1.53-2.87-2.83-3.78c-1.3-0.91-2.93-1.36-4.9-1.36c-2.75,0-4.95,0.97-6.58,2.92
			c-1.63,1.95-2.45,4.67-2.45,8.17c0,3.5,0.82,6.23,2.45,8.2c1.63,1.97,3.82,2.95,6.58,2.95c3.89,0,6.47-1.71,7.73-5.13h7.26
			c-0.94,3.3-2.71,5.93-5.31,7.88c-2.6,1.95-5.82,2.92-9.68,2.92c-3.11,0-5.86-0.7-8.26-2.09c-2.4-1.4-4.28-3.36-5.63-5.9
			c-1.36-2.54-2.04-5.48-2.04-8.82C-647.18,296.41-646.5,293.47-645.14,290.93z"/>
		<path class="st0" d="M-597.38,277.98c-0.83-0.83-1.24-1.85-1.24-3.07c0-1.22,0.41-2.24,1.24-3.07c0.83-0.83,1.85-1.24,3.07-1.24
			c1.18,0,2.18,0.41,3.01,1.24c0.82,0.83,1.24,1.85,1.24,3.07c0,1.22-0.41,2.24-1.24,3.07c-0.83,0.83-1.83,1.24-3.01,1.24
			C-595.53,279.22-596.56,278.8-597.38,277.98z M-591.01,283.52v32.51h-6.73v-32.51H-591.01z"/>
		<path class="st0" d="M-562.51,289.01v18c0,1.22,0.28,2.09,0.86,2.63c0.57,0.53,1.54,0.8,2.92,0.8h4.13v5.61h-5.31
			c-3.03,0-5.35-0.71-6.96-2.12c-1.61-1.42-2.42-3.72-2.42-6.9v-18h-3.83v-5.49h3.83v-8.08h6.79v8.08h7.91v5.49H-562.51z"/>
		<path class="st0" d="M-507.35,283.52l-19.94,47.79h-6.96l6.61-15.81l-12.8-31.98h7.49l9.14,24.78l9.5-24.78H-507.35z"/>
		<path class="st2" d="M-453.07,316.03h-11.56l-15.4-23.25v23.25h-11.56v-41.59h11.56l15.4,23.54v-23.54h11.56V316.03z"/>
		<path class="st2" d="M-423.1,283.7v6.79h13.27v8.79h-13.27v7.49h15.04v9.26h-26.61v-41.59h26.61v9.26H-423.1z"/>
		<path class="st2" d="M-359.2,274.44v9.2h-11.09v32.39h-11.56v-32.39h-10.97v-9.2H-359.2z"/>
	</g>
</g>
<g>
	<path class="st0" d="M379.07,43.26l16.84,41.05l14.68-0.09l18-45.51c0.22-0.57,0.77-0.92,1.35-0.91l0,0l16.81-0.11
		c-2.36-7.18-6.4-13.59-11.65-18.77c-8.56-8.46-20.36-13.64-33.34-13.56c-12.99,0.08-24.71,5.42-33.17,13.99
		c-2.99,3.03-5.57,6.46-7.65,10.21l-3.25,0.02c2.33-4.52,5.33-8.65,8.87-12.23c8.97-9.08,21.4-14.75,35.18-14.84
		c13.77-0.09,26.28,5.42,35.37,14.38c6.42,6.33,11.12,14.4,13.37,23.44l-1.73,0.01l-1.21,0.01L431,40.45l-18.04,45.63
		c-0.18,0.59-0.73,1.01-1.37,1.02l-16.62,0.11l0,0c-0.57,0-1.11-0.34-1.34-0.9l-17.21-41.94c-0.91-0.03-1.73-0.4-2.33-1l0,0
		c-0.63-0.63-1.03-1.49-1.04-2.46c-0.01-0.96,0.38-1.83,1-2.47l0,0c0.63-0.63,1.49-1.03,2.45-1.04c0.96-0.01,1.83,0.38,2.47,1v0
		c0.63,0.63,1.03,1.49,1.04,2.45C380.01,41.79,379.65,42.63,379.07,43.26L379.07,43.26z M377.42,39.89L377.42,39.89
		c-0.21-0.21-0.51-0.34-0.83-0.34c-0.33,0-0.62,0.13-0.83,0.34c-0.21,0.21-0.34,0.51-0.34,0.83c0,0.32,0.13,0.62,0.34,0.83l0,0
		c0.21,0.21,0.51,0.34,0.83,0.34c0.32,0,0.62-0.13,0.83-0.34c0.21-0.21,0.34-0.51,0.34-0.83C377.76,40.4,377.63,40.1,377.42,39.89
		L377.42,39.89z"/>
	<linearGradient id="SVGID_2_" gradientUnits="userSpaceOnUse" x1="352.1728" y1="65.9898" x2="451.9417" y2="65.9898">
		<stop  offset="0" style="stop-color:#AFAFB1"/>
		<stop  offset="0.2501" style="stop-color:#919193"/>
		<stop  offset="0.5526" style="stop-color:#747476"/>
		<stop  offset="0.8132" style="stop-color:#616163"/>
		<stop  offset="1" style="stop-color:#5B5B5D"/>
	</linearGradient>
	<path class="st3" d="M432.29,29.71c0.96-0.01,1.84,0.38,2.47,1l0,0c0.63,0.63,1.03,1.49,1.04,2.45c0.01,0.96-0.38,1.84-1,2.47
		c-0.63,0.64-1.5,1.03-2.46,1.04c-0.96,0.01-1.83-0.38-2.47-1l0,0c-0.29-0.29-0.54-0.63-0.71-1.02l-14.96,0.1l-9.58,28.25
		c-0.25,0.75-1.07,1.16-1.82,0.9c-0.44-0.15-0.76-0.48-0.9-0.89l-9.94-28.13l-33.66,0.22c-2.15,5.44-3.31,11.37-3.27,17.57
		c0.08,12.99,5.42,24.71,13.99,33.17c8.56,8.46,20.36,13.64,33.34,13.56c12.99-0.08,24.71-5.42,33.17-13.99
		c8.46-8.56,13.64-20.36,13.56-33.34c-0.02-3.11-0.34-6.15-0.94-9.08l2.91-0.02c0.56,2.94,0.86,5.98,0.88,9.08
		c0.09,13.77-5.42,26.28-14.38,35.37c-8.97,9.08-21.4,14.75-35.18,14.84c-13.78,0.09-26.28-5.42-35.37-14.39
		c-9.08-8.97-14.75-21.4-14.84-35.18c-0.05-7.28,1.47-14.21,4.24-20.47l1.3-0.01l1.85-0.01L392.97,32l0,0.01
		c0.6,0,1.16,0.37,1.37,0.96l8.9,25.18l8.53-25.17c0.15-0.63,0.72-1.11,1.4-1.11l15.98-0.1c0.17-0.38,0.41-0.73,0.7-1.02l0,0
		C430.47,30.11,431.33,29.72,432.29,29.71L432.29,29.71z M433.27,32.56L433.27,32.56c-0.21-0.21-0.51-0.34-0.83-0.34
		c-0.33,0-0.62,0.13-0.83,0.34c-0.21,0.21-0.34,0.51-0.34,0.83c0,0.32,0.13,0.62,0.34,0.83l0,0c0.21,0.21,0.51,0.34,0.83,0.34
		c0.32,0,0.62-0.13,0.83-0.34c0.21-0.21,0.34-0.51,0.34-0.83C433.61,33.06,433.48,32.77,433.27,32.56L433.27,32.56z"/>
	<g>
		<path class="st0" d="M365.5,114.45l-3.02,8.05h-1.53l-3.04-8.05h1.41l2.39,6.7l2.4-6.7H365.5z"/>
		<path class="st0" d="M374.72,119.8h-4.88c0.04,0.51,0.23,0.92,0.57,1.23c0.34,0.31,0.76,0.46,1.25,0.46c0.71,0,1.21-0.3,1.51-0.89
			h1.42c-0.19,0.59-0.54,1.07-1.05,1.44c-0.51,0.37-1.13,0.56-1.88,0.56c-0.61,0-1.16-0.14-1.64-0.41
			c-0.48-0.27-0.86-0.66-1.14-1.16c-0.27-0.5-0.41-1.08-0.41-1.73c0-0.66,0.13-1.23,0.4-1.73c0.27-0.5,0.64-0.88,1.12-1.15
			c0.48-0.27,1.04-0.41,1.66-0.41c0.6,0,1.14,0.13,1.61,0.39c0.47,0.26,0.84,0.63,1.1,1.11c0.26,0.47,0.39,1.02,0.39,1.64
			C374.76,119.39,374.75,119.61,374.72,119.8z M373.39,118.74c-0.01-0.49-0.18-0.88-0.52-1.17c-0.34-0.29-0.76-0.44-1.26-0.44
			c-0.46,0-0.85,0.14-1.17,0.43c-0.32,0.29-0.52,0.68-0.58,1.18H373.39z"/>
		<path class="st0" d="M379.7,113.93v8.57h-1.32v-8.57H379.7z"/>
		<path class="st0" d="M384.89,122.19c-0.49-0.27-0.87-0.66-1.15-1.16c-0.28-0.5-0.42-1.08-0.42-1.73c0-0.65,0.14-1.22,0.43-1.73
			c0.29-0.5,0.68-0.89,1.17-1.16c0.49-0.27,1.05-0.41,1.66-0.41c0.61,0,1.16,0.14,1.66,0.41c0.49,0.27,0.88,0.66,1.17,1.16
			c0.29,0.5,0.43,1.08,0.43,1.73s-0.15,1.22-0.44,1.73c-0.29,0.5-0.69,0.89-1.2,1.16c-0.51,0.27-1.06,0.41-1.67,0.41
			C385.92,122.6,385.38,122.47,384.89,122.19z M387.48,121.21c0.3-0.16,0.54-0.41,0.72-0.73c0.19-0.32,0.28-0.72,0.28-1.18
			c0-0.46-0.09-0.86-0.27-1.18c-0.18-0.32-0.41-0.56-0.71-0.72c-0.29-0.16-0.61-0.24-0.95-0.24c-0.34,0-0.65,0.08-0.94,0.24
			c-0.29,0.16-0.52,0.4-0.69,0.72c-0.17,0.32-0.25,0.71-0.25,1.18c0,0.69,0.18,1.22,0.53,1.59c0.35,0.37,0.79,0.56,1.33,0.56
			C386.86,121.46,387.18,121.38,387.48,121.21z"/>
		<path class="st0" d="M393.42,117.57c0.27-0.5,0.64-0.88,1.11-1.15c0.47-0.27,1.01-0.41,1.62-0.41c0.77,0,1.41,0.18,1.92,0.55
			c0.51,0.37,0.85,0.89,1.03,1.57h-1.42c-0.12-0.32-0.3-0.56-0.56-0.74c-0.25-0.18-0.58-0.27-0.96-0.27c-0.54,0-0.97,0.19-1.29,0.57
			c-0.32,0.38-0.48,0.92-0.48,1.6c0,0.69,0.16,1.22,0.48,1.61c0.32,0.39,0.75,0.58,1.29,0.58c0.76,0,1.27-0.34,1.52-1.01h1.42
			c-0.19,0.65-0.53,1.16-1.04,1.55c-0.51,0.38-1.14,0.57-1.9,0.57c-0.61,0-1.15-0.14-1.62-0.41c-0.47-0.27-0.84-0.66-1.11-1.16
			c-0.27-0.5-0.4-1.08-0.4-1.73C393.02,118.65,393.15,118.07,393.42,117.57z"/>
		<path class="st0" d="M402.8,115.03c-0.16-0.16-0.24-0.36-0.24-0.6c0-0.24,0.08-0.44,0.24-0.6c0.16-0.16,0.36-0.24,0.6-0.24
			c0.23,0,0.43,0.08,0.59,0.24c0.16,0.16,0.24,0.36,0.24,0.6c0,0.24-0.08,0.44-0.24,0.6c-0.16,0.16-0.36,0.24-0.59,0.24
			C403.16,115.27,402.96,115.19,402.8,115.03z M404.05,116.12v6.38h-1.32v-6.38H404.05z"/>
		<path class="st0" d="M409.65,117.19v3.53c0,0.24,0.06,0.41,0.17,0.52c0.11,0.1,0.3,0.16,0.57,0.16h0.81v1.1h-1.04
			c-0.59,0-1.05-0.14-1.37-0.42c-0.32-0.28-0.47-0.73-0.47-1.36v-3.53h-0.75v-1.08h0.75v-1.59h1.33v1.59h1.55v1.08H409.65z"/>
		<path class="st0" d="M420.48,116.12l-3.92,9.38h-1.37l1.3-3.1l-2.51-6.28h1.47l1.8,4.87l1.87-4.87H420.48z"/>
		<path class="st2" d="M431.13,122.5h-2.27l-3.02-4.56v4.56h-2.27v-8.17h2.27l3.02,4.62v-4.62h2.27V122.5z"/>
		<path class="st2" d="M437.02,116.15v1.33h2.61v1.73h-2.61v1.47h2.95v1.82h-5.22v-8.17h5.22v1.82H437.02z"/>
		<path class="st2" d="M449.56,114.33v1.81h-2.18v6.36h-2.27v-6.36h-2.15v-1.81H449.56z"/>
	</g>
</g>
<g>
	<path class="st0" d="M42.38,43.26l16.84,41.05l14.68-0.09l18-45.51c0.22-0.57,0.77-0.92,1.35-0.91l0,0l16.81-0.11
		c-2.36-7.18-6.4-13.59-11.65-18.77C89.86,10.46,78.06,5.27,65.08,5.36c-12.99,0.08-24.71,5.42-33.17,13.99
		c-2.99,3.03-5.57,6.46-7.65,10.21l-3.25,0.02c2.33-4.52,5.33-8.65,8.87-12.23C38.85,8.25,51.29,2.59,65.06,2.5
		c13.77-0.09,26.28,5.42,35.37,14.38c6.42,6.33,11.12,14.4,13.37,23.44l-1.73,0.01l-1.21,0.01l-16.54,0.11L76.27,86.08
		c-0.18,0.59-0.73,1.01-1.37,1.02L58.28,87.2l0,0c-0.57,0-1.11-0.34-1.34-0.9L39.73,44.36c-0.91-0.03-1.73-0.4-2.33-1l0,0
		c-0.63-0.63-1.03-1.49-1.04-2.46c-0.01-0.96,0.38-1.83,1-2.47l0,0c0.63-0.63,1.49-1.03,2.45-1.04c0.96-0.01,1.83,0.38,2.47,1l0,0
		c0.63,0.63,1.03,1.49,1.04,2.45C43.33,41.79,42.97,42.63,42.38,43.26L42.38,43.26z M40.74,39.89L40.74,39.89
		c-0.21-0.21-0.51-0.34-0.83-0.34c-0.33,0-0.62,0.13-0.83,0.34c-0.21,0.21-0.34,0.51-0.34,0.83c0,0.32,0.13,0.62,0.34,0.83l0,0
		c0.21,0.21,0.51,0.34,0.83,0.34c0.32,0,0.62-0.13,0.83-0.34c0.21-0.21,0.34-0.51,0.34-0.83C41.08,40.4,40.95,40.1,40.74,39.89
		L40.74,39.89z"/>
	<linearGradient id="SVGID_3_" gradientUnits="userSpaceOnUse" x1="15.492" y1="65.9898" x2="115.2608" y2="65.9898">
		<stop  offset="0" style="stop-color:#AFAFB1"/>
		<stop  offset="0.2501" style="stop-color:#919193"/>
		<stop  offset="0.5526" style="stop-color:#747476"/>
		<stop  offset="0.8132" style="stop-color:#616163"/>
		<stop  offset="1" style="stop-color:#5B5B5D"/>
	</linearGradient>
	<path class="st4" d="M95.61,29.71c0.96-0.01,1.84,0.38,2.47,1l0,0c0.63,0.63,1.03,1.49,1.04,2.45c0.01,0.96-0.38,1.84-1,2.47
		c-0.63,0.64-1.5,1.03-2.46,1.04c-0.96,0.01-1.83-0.38-2.47-1l0,0c-0.29-0.29-0.54-0.63-0.71-1.02l-14.96,0.1l-9.58,28.25
		c-0.25,0.75-1.07,1.16-1.82,0.9c-0.44-0.15-0.76-0.48-0.9-0.89L55.29,34.9l-33.66,0.22c-2.15,5.44-3.31,11.37-3.27,17.57
		c0.08,12.99,5.42,24.71,13.99,33.17c8.56,8.46,20.36,13.64,33.34,13.56c12.99-0.08,24.71-5.42,33.17-13.99
		c8.46-8.56,13.64-20.36,13.56-33.34c-0.02-3.11-0.34-6.15-0.94-9.08l2.91-0.02c0.56,2.94,0.86,5.98,0.88,9.08
		c0.09,13.77-5.42,26.28-14.38,35.37c-8.97,9.08-21.4,14.75-35.18,14.84c-13.78,0.09-26.28-5.42-35.37-14.39
		c-9.08-8.97-14.75-21.4-14.84-35.18c-0.05-7.28,1.47-14.21,4.24-20.47l1.3-0.01l1.85-0.01L56.29,32l0,0.01
		c0.6,0,1.16,0.37,1.37,0.96l8.9,25.18l8.53-25.17c0.15-0.63,0.72-1.11,1.4-1.11l15.98-0.1c0.17-0.38,0.41-0.73,0.7-1.02l0,0
		C93.78,30.11,94.65,29.72,95.61,29.71L95.61,29.71z M96.59,32.56L96.59,32.56c-0.21-0.21-0.51-0.34-0.83-0.34
		c-0.33,0-0.62,0.13-0.83,0.34c-0.21,0.21-0.34,0.51-0.34,0.83c0,0.32,0.13,0.62,0.34,0.83l0,0c0.21,0.21,0.51,0.34,0.83,0.34
		c0.32,0,0.62-0.13,0.83-0.34c0.21-0.21,0.34-0.51,0.34-0.83C96.93,33.06,96.8,32.77,96.59,32.56L96.59,32.56z"/>
	<g>
		<path class="st0" d="M28.82,114.45l-3.02,8.05h-1.53l-3.04-8.05h1.41l2.39,6.7l2.4-6.7H28.82z"/>
		<path class="st0" d="M38.04,119.8h-4.88c0.04,0.51,0.23,0.92,0.57,1.23c0.34,0.31,0.76,0.46,1.25,0.46c0.71,0,1.21-0.3,1.51-0.89
			h1.42c-0.19,0.59-0.54,1.07-1.05,1.44c-0.51,0.37-1.13,0.56-1.88,0.56c-0.61,0-1.16-0.14-1.64-0.41
			c-0.48-0.27-0.86-0.66-1.14-1.16c-0.27-0.5-0.41-1.08-0.41-1.73c0-0.66,0.13-1.23,0.4-1.73c0.27-0.5,0.64-0.88,1.12-1.15
			c0.48-0.27,1.04-0.41,1.66-0.41c0.6,0,1.14,0.13,1.61,0.39c0.47,0.26,0.84,0.63,1.1,1.11c0.26,0.47,0.39,1.02,0.39,1.64
			C38.08,119.39,38.07,119.61,38.04,119.8z M36.71,118.74c-0.01-0.49-0.18-0.88-0.52-1.17c-0.34-0.29-0.76-0.44-1.26-0.44
			c-0.46,0-0.85,0.14-1.17,0.43c-0.32,0.29-0.52,0.68-0.58,1.18H36.71z"/>
		<path class="st0" d="M43.02,113.93v8.57H41.7v-8.57H43.02z"/>
		<path class="st0" d="M48.21,122.19c-0.49-0.27-0.87-0.66-1.15-1.16s-0.42-1.08-0.42-1.73c0-0.65,0.14-1.22,0.43-1.73
			c0.29-0.5,0.68-0.89,1.17-1.16c0.49-0.27,1.05-0.41,1.66-0.41c0.61,0,1.16,0.14,1.66,0.41c0.49,0.27,0.88,0.66,1.17,1.16
			c0.29,0.5,0.43,1.08,0.43,1.73s-0.15,1.22-0.44,1.73c-0.29,0.5-0.69,0.89-1.2,1.16c-0.51,0.27-1.06,0.41-1.67,0.41
			C49.24,122.6,48.7,122.47,48.21,122.19z M50.8,121.21c0.3-0.16,0.54-0.41,0.72-0.73c0.19-0.32,0.28-0.72,0.28-1.18
			c0-0.46-0.09-0.86-0.27-1.18c-0.18-0.32-0.41-0.56-0.71-0.72c-0.29-0.16-0.61-0.24-0.95-0.24c-0.34,0-0.65,0.08-0.94,0.24
			c-0.29,0.16-0.52,0.4-0.69,0.72c-0.17,0.32-0.25,0.71-0.25,1.18c0,0.69,0.18,1.22,0.53,1.59c0.35,0.37,0.79,0.56,1.33,0.56
			C50.18,121.46,50.5,121.38,50.8,121.21z"/>
		<path class="st0" d="M56.74,117.57c0.27-0.5,0.64-0.88,1.11-1.15c0.47-0.27,1.01-0.41,1.62-0.41c0.77,0,1.41,0.18,1.92,0.55
			c0.51,0.37,0.85,0.89,1.03,1.57h-1.42c-0.12-0.32-0.3-0.56-0.56-0.74c-0.25-0.18-0.58-0.27-0.96-0.27c-0.54,0-0.97,0.19-1.29,0.57
			c-0.32,0.38-0.48,0.92-0.48,1.6c0,0.69,0.16,1.22,0.48,1.61c0.32,0.39,0.75,0.58,1.29,0.58c0.76,0,1.27-0.34,1.52-1.01h1.42
			c-0.19,0.65-0.53,1.16-1.04,1.55c-0.51,0.38-1.14,0.57-1.9,0.57c-0.61,0-1.15-0.14-1.62-0.41c-0.47-0.27-0.84-0.66-1.11-1.16
			c-0.27-0.5-0.4-1.08-0.4-1.73C56.34,118.65,56.47,118.07,56.74,117.57z"/>
		<path class="st0" d="M66.12,115.03c-0.16-0.16-0.24-0.36-0.24-0.6c0-0.24,0.08-0.44,0.24-0.6c0.16-0.16,0.36-0.24,0.6-0.24
			c0.23,0,0.43,0.08,0.59,0.24c0.16,0.16,0.24,0.36,0.24,0.6c0,0.24-0.08,0.44-0.24,0.6c-0.16,0.16-0.36,0.24-0.59,0.24
			C66.48,115.27,66.28,115.19,66.12,115.03z M67.37,116.12v6.38h-1.32v-6.38H67.37z"/>
		<path class="st0" d="M72.96,117.19v3.53c0,0.24,0.06,0.41,0.17,0.52c0.11,0.1,0.3,0.16,0.57,0.16h0.81v1.1h-1.04
			c-0.59,0-1.05-0.14-1.37-0.42c-0.32-0.28-0.47-0.73-0.47-1.36v-3.53h-0.75v-1.08h0.75v-1.59h1.33v1.59h1.55v1.08H72.96z"/>
		<path class="st0" d="M83.8,116.12l-3.92,9.38h-1.37l1.3-3.1l-2.51-6.28h1.47l1.8,4.87l1.87-4.87H83.8z"/>
		<path class="st5" d="M94.45,122.5h-2.27l-3.02-4.56v4.56h-2.27v-8.17h2.27l3.02,4.62v-4.62h2.27V122.5z"/>
		<path class="st5" d="M100.34,116.15v1.33h2.61v1.73h-2.61v1.47h2.95v1.82h-5.22v-8.17h5.22v1.82H100.34z"/>
		<path class="st5" d="M112.88,114.33v1.81h-2.18v6.36h-2.27v-6.36h-2.15v-1.81H112.88z"/>
	</g>
</g>
</svg>
