<?xml version="1.0" encoding="UTF-8" standalone="no"?><svg xmlns="http://www.w3.org/2000/svg" xmlns:xlink="http://www.w3.org/1999/xlink" contentScriptType="application/ecmascript" contentStyleType="text/css" height="1612px" preserveAspectRatio="none" style="width:839px;height:1612px;background:#FFFFFF;" version="1.1" viewBox="0 0 839 1612" width="839px" zoomAndPan="magnify"><defs><filter height="300%" id="f1uq3zgi9fzswp" width="300%" x="-1" y="-1"><feGaussianBlur result="blurOut" stdDeviation="2.0"/><feColorMatrix in="blurOut" result="blurOut2" type="matrix" values="0 0 0 0 0 0 0 0 0 0 0 0 0 0 0 0 0 0 .4 0"/><feOffset dx="4.0" dy="4.0" in="blurOut2" result="blurOut3"/><feBlend in="SourceGraphic" in2="blurOut3" mode="normal"/></filter></defs><g><rect fill="#FFFFFF" filter="url(#f1uq3zgi9fzswp)" height="145.6641" style="stroke:#A80036;stroke-width:1.0;" width="10" x="180.5" y="162.5625"/><rect fill="#FFFFFF" filter="url(#f1uq3zgi9fzswp)" height="94.2656" style="stroke:#A80036;stroke-width:1.0;" width="10" x="180.5" y="540.0234"/><rect fill="#FFFFFF" filter="url(#f1uq3zgi9fzswp)" height="334.3281" style="stroke:#A80036;stroke-width:1.0;" width="10" x="180.5" y="972.75"/><rect fill="#FFFFFF" filter="url(#f1uq3zgi9fzswp)" height="87.3984" style="stroke:#A80036;stroke-width:1.0;" width="10" x="401.5" y="191.6953"/><rect fill="#FFFFFF" filter="url(#f1uq3zgi9fzswp)" height="130.3984" style="stroke:#A80036;stroke-width:1.0;" width="10" x="401.5" y="409.625"/><rect fill="#FFFFFF" filter="url(#f1uq3zgi9fzswp)" height="30" style="stroke:#A80036;stroke-width:1.0;" width="10" x="401.5" y="569.1563"/><rect fill="#FFFFFF" filter="url(#f1uq3zgi9fzswp)" height="230.0625" style="stroke:#A80036;stroke-width:1.0;" width="10" x="401.5" y="742.6875"/><rect fill="#FFFFFF" filter="url(#f1uq3zgi9fzswp)" height="30" style="stroke:#A80036;stroke-width:1.0;" width="10" x="401.5" y="1001.8828"/><rect fill="#FFFFFF" filter="url(#f1uq3zgi9fzswp)" height="87.3984" style="stroke:#A80036;stroke-width:1.0;" width="10" x="401.5" y="1219.6797"/><rect fill="#FFFFFF" filter="url(#f1uq3zgi9fzswp)" height="29.1328" style="stroke:#A80036;stroke-width:1.0;" width="10" x="401.5" y="1379.3438"/><rect fill="#FFFFFF" filter="url(#f1uq3zgi9fzswp)" height="29.1328" style="stroke:#A80036;stroke-width:1.0;" width="10" x="559.5" y="220.8281"/><rect fill="#FFFFFF" filter="url(#f1uq3zgi9fzswp)" height="29.1328" style="stroke:#A80036;stroke-width:1.0;" width="10" x="559.5" y="380.4922"/><rect fill="#FFFFFF" filter="url(#f1uq3zgi9fzswp)" height="30" style="stroke:#A80036;stroke-width:1.0;" width="10" x="559.5" y="438.7578"/><rect fill="#FFFFFF" filter="url(#f1uq3zgi9fzswp)" height="30" style="stroke:#A80036;stroke-width:1.0;" width="10" x="559.5" y="871.4844"/><rect fill="#FFFFFF" filter="url(#f1uq3zgi9fzswp)" height="29.1328" style="stroke:#A80036;stroke-width:1.0;" width="10" x="559.5" y="1248.8125"/><rect fill="#FFFFFF" filter="url(#f1uq3zgi9fzswp)" height="29.1328" style="stroke:#A80036;stroke-width:1.0;" width="10" x="559.5" y="1480.7422"/><line style="stroke:#A80036;stroke-width:1.0;stroke-dasharray:5.0,5.0;" x1="61" x2="61" y1="88.2969" y2="1527.875"/><line style="stroke:#A80036;stroke-width:1.0;stroke-dasharray:5.0,5.0;" x1="185" x2="185" y1="88.2969" y2="1527.875"/><line style="stroke:#A80036;stroke-width:1.0;stroke-dasharray:5.0,5.0;" x1="406" x2="406" y1="88.2969" y2="1527.875"/><line style="stroke:#A80036;stroke-width:1.0;stroke-dasharray:5.0,5.0;" x1="564.5" x2="564.5" y1="88.2969" y2="1527.875"/><line style="stroke:#A80036;stroke-width:1.0;stroke-dasharray:5.0,5.0;" x1="637.5" x2="637.5" y1="88.2969" y2="1527.875"/><text fill="#000000" font-family="sans-serif" font-size="14" lengthAdjust="spacing" textLength="107" x="5" y="84.9951">Node Operator</text><ellipse cx="61.5" cy="15" fill="#FEFECE" filter="url(#f1uq3zgi9fzswp)" rx="8" ry="8" style="stroke:#A80036;stroke-width:2.0;"/><path d="M61.5,23 L61.5,50 M48.5,31 L74.5,31 M61.5,50 L48.5,65 M61.5,50 L74.5,65 " fill="none" filter="url(#f1uq3zgi9fzswp)" style="stroke:#A80036;stroke-width:2.0;"/><text fill="#000000" font-family="sans-serif" font-size="14" lengthAdjust="spacing" textLength="107" x="5" y="1539.8701">Node Operator</text><ellipse cx="61.5" cy="1553.1719" fill="#FEFECE" filter="url(#f1uq3zgi9fzswp)" rx="8" ry="8" style="stroke:#A80036;stroke-width:2.0;"/><path d="M61.5,1561.1719 L61.5,1588.1719 M48.5,1569.1719 L74.5,1569.1719 M61.5,1588.1719 L48.5,1603.1719 M61.5,1588.1719 L74.5,1603.1719 " fill="none" filter="url(#f1uq3zgi9fzswp)" style="stroke:#A80036;stroke-width:2.0;"/><rect fill="#FEFECE" filter="url(#f1uq3zgi9fzswp)" height="30.2969" style="stroke:#A80036;stroke-width:1.5;" width="47" x="160" y="53"/><text fill="#000000" font-family="sans-serif" font-size="14" lengthAdjust="spacing" textLength="33" x="167" y="72.9951">Host</text><rect fill="#FEFECE" filter="url(#f1uq3zgi9fzswp)" height="30.2969" style="stroke:#A80036;stroke-width:1.5;" width="47" x="160" y="1526.875"/><text fill="#000000" font-family="sans-serif" font-size="14" lengthAdjust="spacing" textLength="33" x="167" y="1546.8701">Host</text><rect fill="#FEFECE" filter="url(#f1uq3zgi9fzswp)" height="30.2969" style="stroke:#A80036;stroke-width:1.5;" width="51" x="379" y="53"/><text fill="#000000" font-family="sans-serif" font-size="14" lengthAdjust="spacing" textLength="37" x="386" y="72.9951">Node</text><rect fill="#FEFECE" filter="url(#f1uq3zgi9fzswp)" height="30.2969" style="stroke:#A80036;stroke-width:1.5;" width="51" x="379" y="1526.875"/><text fill="#000000" font-family="sans-serif" font-size="14" lengthAdjust="spacing" textLength="37" x="386" y="1546.8701">Node</text><rect fill="#FEFECE" filter="url(#f1uq3zgi9fzswp)" height="30.2969" style="stroke:#A80036;stroke-width:1.5;" width="38" x="543.5" y="53"/><text fill="#000000" font-family="sans-serif" font-size="14" lengthAdjust="spacing" textLength="24" x="550.5" y="72.9951">GUI</text><rect fill="#FEFECE" filter="url(#f1uq3zgi9fzswp)" height="30.2969" style="stroke:#A80036;stroke-width:1.5;" width="38" x="543.5" y="1526.875"/><text fill="#000000" font-family="sans-serif" font-size="14" lengthAdjust="spacing" textLength="24" x="550.5" y="1546.8701">GUI</text><text fill="#000000" font-family="sans-serif" font-size="14" lengthAdjust="spacing" textLength="78" x="595.5" y="84.9951">Blockchain</text><path d="M619.5,36 C619.5,26 637.5,26 637.5,26 C637.5,26 655.5,26 655.5,36 L655.5,62 C655.5,72 637.5,72 637.5,72 C637.5,72 619.5,72 619.5,62 L619.5,36 " fill="#FEFECE" filter="url(#f1uq3zgi9fzswp)" style="stroke:#000000;stroke-width:1.5;"/><path d="M619.5,36 C619.5,46 637.5,46 637.5,46 C637.5,46 655.5,46 655.5,36 " fill="none" style="stroke:#000000;stroke-width:1.5;"/><text fill="#000000" font-family="sans-serif" font-size="14" lengthAdjust="spacing" textLength="78" x="595.5" y="1539.8701">Blockchain</text><path d="M619.5,1553.1719 C619.5,1543.1719 637.5,1543.1719 637.5,1543.1719 C637.5,1543.1719 655.5,1543.1719 655.5,1553.1719 L655.5,1579.1719 C655.5,1589.1719 637.5,1589.1719 637.5,1589.1719 C637.5,1589.1719 619.5,1589.1719 619.5,1579.1719 L619.5,1553.1719 " fill="#FEFECE" filter="url(#f1uq3zgi9fzswp)" style="stroke:#000000;stroke-width:1.5;"/><path d="M619.5,1553.1719 C619.5,1563.1719 637.5,1563.1719 637.5,1563.1719 C637.5,1563.1719 655.5,1563.1719 655.5,1553.1719 " fill="none" style="stroke:#000000;stroke-width:1.5;"/><rect fill="#FFFFFF" filter="url(#f1uq3zgi9fzswp)" height="145.6641" style="stroke:#A80036;stroke-width:1.0;" width="10" x="180.5" y="162.5625"/><rect fill="#FFFFFF" filter="url(#f1uq3zgi9fzswp)" height="94.2656" style="stroke:#A80036;stroke-width:1.0;" width="10" x="180.5" y="540.0234"/><rect fill="#FFFFFF" filter="url(#f1uq3zgi9fzswp)" height="334.3281" style="stroke:#A80036;stroke-width:1.0;" width="10" x="180.5" y="972.75"/><rect fill="#FFFFFF" filter="url(#f1uq3zgi9fzswp)" height="87.3984" style="stroke:#A80036;stroke-width:1.0;" width="10" x="401.5" y="191.6953"/><rect fill="#FFFFFF" filter="url(#f1uq3zgi9fzswp)" height="130.3984" style="stroke:#A80036;stroke-width:1.0;" width="10" x="401.5" y="409.625"/><rect fill="#FFFFFF" filter="url(#f1uq3zgi9fzswp)" height="30" style="stroke:#A80036;stroke-width:1.0;" width="10" x="401.5" y="569.1563"/><rect fill="#FFFFFF" filter="url(#f1uq3zgi9fzswp)" height="230.0625" style="stroke:#A80036;stroke-width:1.0;" width="10" x="401.5" y="742.6875"/><rect fill="#FFFFFF" filter="url(#f1uq3zgi9fzswp)" height="30" style="stroke:#A80036;stroke-width:1.0;" width="10" x="401.5" y="1001.8828"/><rect fill="#FFFFFF" filter="url(#f1uq3zgi9fzswp)" height="87.3984" style="stroke:#A80036;stroke-width:1.0;" width="10" x="401.5" y="1219.6797"/><rect fill="#FFFFFF" filter="url(#f1uq3zgi9fzswp)" height="29.1328" style="stroke:#A80036;stroke-width:1.0;" width="10" x="401.5" y="1379.3438"/><rect fill="#FFFFFF" filter="url(#f1uq3zgi9fzswp)" height="29.1328" style="stroke:#A80036;stroke-width:1.0;" width="10" x="559.5" y="220.8281"/><rect fill="#FFFFFF" filter="url(#f1uq3zgi9fzswp)" height="29.1328" style="stroke:#A80036;stroke-width:1.0;" width="10" x="559.5" y="380.4922"/><rect fill="#FFFFFF" filter="url(#f1uq3zgi9fzswp)" height="30" style="stroke:#A80036;stroke-width:1.0;" width="10" x="559.5" y="438.7578"/><rect fill="#FFFFFF" filter="url(#f1uq3zgi9fzswp)" height="30" style="stroke:#A80036;stroke-width:1.0;" width="10" x="559.5" y="871.4844"/><rect fill="#FFFFFF" filter="url(#f1uq3zgi9fzswp)" height="29.1328" style="stroke:#A80036;stroke-width:1.0;" width="10" x="559.5" y="1248.8125"/><rect fill="#FFFFFF" filter="url(#f1uq3zgi9fzswp)" height="29.1328" style="stroke:#A80036;stroke-width:1.0;" width="10" x="559.5" y="1480.7422"/><rect fill="#EEEEEE" filter="url(#f1uq3zgi9fzswp)" height="3" style="stroke:#EEEEEE;stroke-width:1.0;" width="832" x="0" y="118.8633"/><line style="stroke:#000000;stroke-width:1.0;" x1="0" x2="832" y1="118.8633" y2="118.8633"/><line style="stroke:#000000;stroke-width:1.0;" x1="0" x2="832" y1="121.8633" y2="121.8633"/><rect fill="#EEEEEE" filter="url(#f1uq3zgi9fzswp)" height="23.1328" style="stroke:#000000;stroke-width:2.0;" width="146" x="343" y="108.2969"/><text fill="#000000" font-family="sans-serif" font-size="13" font-weight="bold" lengthAdjust="spacing" textLength="127" x="349" y="124.3638">Open Application</text><polygon fill="#A80036" points="168.5,158.5625,178.5,162.5625,168.5,166.5625,172.5,162.5625" style="stroke:#A80036;stroke-width:1.0;"/><line style="stroke:#A80036;stroke-width:1.0;" x1="61.5" x2="174.5" y1="162.5625" y2="162.5625"/><text fill="#000000" font-family="sans-serif" font-size="13" lengthAdjust="spacing" textLength="100" x="68.5" y="157.4966">Launch Process</text><polygon fill="#A80036" points="389.5,187.6953,399.5,191.6953,389.5,195.6953,393.5,191.6953" style="stroke:#A80036;stroke-width:1.0;"/><line style="stroke:#A80036;stroke-width:1.0;" x1="190.5" x2="395.5" y1="191.6953" y2="191.6953"/><text fill="#000000" font-family="sans-serif" font-size="13" lengthAdjust="spacing" textLength="129" x="197.5" y="186.6294">Launch Sub-Process</text><polygon fill="#A80036" points="547.5,216.8281,557.5,220.8281,547.5,224.8281,551.5,220.8281" style="stroke:#A80036;stroke-width:1.0;"/><line style="stroke:#A80036;stroke-width:1.0;" x1="411.5" x2="553.5" y1="220.8281" y2="220.8281"/><text fill="#000000" font-family="sans-serif" font-size="13" lengthAdjust="spacing" textLength="129" x="418.5" y="215.7622">Launch Sub-Process</text><polygon fill="#A80036" points="422.5,245.9609,412.5,249.9609,422.5,253.9609,418.5,249.9609" style="stroke:#A80036;stroke-width:1.0;"/><line style="stroke:#A80036;stroke-width:1.0;stroke-dasharray:2.0,2.0;" x1="416.5" x2="563.5" y1="249.9609" y2="249.9609"/><text fill="#000000" font-family="sans-serif" font-size="13" lengthAdjust="spacing" textLength="37" x="428.5" y="244.895">ready</text><polygon fill="#A80036" points="201.5,275.0938,191.5,279.0938,201.5,283.0938,197.5,279.0938" style="stroke:#A80036;stroke-width:1.0;"/><line style="stroke:#A80036;stroke-width:1.0;stroke-dasharray:2.0,2.0;" x1="195.5" x2="405.5" y1="279.0938" y2="279.0938"/><text fill="#000000" font-family="sans-serif" font-size="13" lengthAdjust="spacing" textLength="37" x="207.5" y="274.0278">ready</text><polygon fill="#A80036" points="72.5,304.2266,62.5,308.2266,72.5,312.2266,68.5,308.2266" style="stroke:#A80036;stroke-width:1.0;"/><line style="stroke:#A80036;stroke-width:1.0;stroke-dasharray:2.0,2.0;" x1="66.5" x2="184.5" y1="308.2266" y2="308.2266"/><text fill="#000000" font-family="sans-serif" font-size="13" lengthAdjust="spacing" textLength="37" x="78.5" y="303.1606">ready</text><rect fill="#EEEEEE" filter="url(#f1uq3zgi9fzswp)" height="3" style="stroke:#EEEEEE;stroke-width:1.0;" width="832" x="0" y="336.793"/><line style="stroke:#000000;stroke-width:1.0;" x1="0" x2="832" y1="336.793" y2="336.793"/><line style="stroke:#000000;stroke-width:1.0;" x1="0" x2="832" y1="339.793" y2="339.793"/><rect fill="#EEEEEE" filter="url(#f1uq3zgi9fzswp)" height="23.1328" style="stroke:#000000;stroke-width:2.0;" width="137" x="347.5" y="326.2266"/><text fill="#000000" font-family="sans-serif" font-size="13" font-weight="bold" lengthAdjust="spacing" textLength="118" x="353.5" y="342.2935">Exit Application</text><polygon fill="#A80036" points="547.5,376.4922,557.5,380.4922,547.5,384.4922,551.5,380.4922" style="stroke:#A80036;stroke-width:1.0;"/><line style="stroke:#A80036;stroke-width:1.0;" x1="61.5" x2="553.5" y1="380.4922" y2="380.4922"/><text fill="#000000" font-family="sans-serif" font-size="13" lengthAdjust="spacing" textLength="24" x="68.5" y="375.4263">Exit</text><polygon fill="#A80036" points="422.5,405.625,412.5,409.625,422.5,413.625,418.5,409.625" style="stroke:#A80036;stroke-width:1.0;"/><line style="stroke:#A80036;stroke-width:1.0;" x1="416.5" x2="563.5" y1="409.625" y2="409.625"/><text fill="#000000" font-family="sans-serif" font-size="13" lengthAdjust="spacing" textLength="123" x="428.5" y="404.5591">Request Terminate</text><polygon fill="#A80036" points="547.5,434.7578,557.5,438.7578,547.5,442.7578,551.5,438.7578" style="stroke:#A80036;stroke-width:1.0;"/><line style="stroke:#A80036;stroke-width:1.0;" x1="411.5" x2="553.5" y1="438.7578" y2="438.7578"/><text fill="#000000" font-family="sans-serif" font-size="13" lengthAdjust="spacing" textLength="120" x="418.5" y="433.6919">Terminate Process</text><line style="stroke:#A80036;stroke-width:2.0;" x1="555.5" x2="573.5" y1="459.7578" y2="477.7578"/><line style="stroke:#A80036;stroke-width:2.0;" x1="555.5" x2="573.5" y1="477.7578" y2="459.7578"/><line style="stroke:#A80036;stroke-width:1.0;" x1="411.5" x2="453.5" y1="497.8906" y2="497.8906"/><line style="stroke:#A80036;stroke-width:1.0;" x1="453.5" x2="453.5" y1="497.8906" y2="510.8906"/><line style="stroke:#A80036;stroke-width:1.0;" x1="412.5" x2="453.5" y1="510.8906" y2="510.8906"/><polygon fill="#A80036" points="422.5,506.8906,412.5,510.8906,422.5,514.8906,418.5,510.8906" style="stroke:#A80036;stroke-width:1.0;"/><text fill="#000000" font-family="sans-serif" font-size="13" lengthAdjust="spacing" textLength="131" x="418.5" y="492.8247">Shutdown Sequence</text><polygon fill="#A80036" points="201.5,536.0234,191.5,540.0234,201.5,544.0234,197.5,540.0234" style="stroke:#A80036;stroke-width:1.0;"/><line style="stroke:#A80036;stroke-width:1.0;" x1="195.5" x2="405.5" y1="540.0234" y2="540.0234"/><text fill="#000000" font-family="sans-serif" font-size="13" lengthAdjust="spacing" textLength="123" x="207.5" y="534.9575">Request Terminate</text><polygon fill="#A80036" points="389.5,565.1563,399.5,569.1563,389.5,573.1563,393.5,569.1563" style="stroke:#A80036;stroke-width:1.0;"/><line style="stroke:#A80036;stroke-width:1.0;" x1="190.5" x2="395.5" y1="569.1563" y2="569.1563"/><text fill="#000000" font-family="sans-serif" font-size="13" lengthAdjust="spacing" textLength="120" x="197.5" y="564.0903">Terminate Process</text><line style="stroke:#A80036;stroke-width:2.0;" x1="397.5" x2="415.5" y1="590.1563" y2="608.1563"/><line style="stroke:#A80036;stroke-width:2.0;" x1="397.5" x2="415.5" y1="608.1563" y2="590.1563"/><line style="stroke:#A80036;stroke-width:1.0;" x1="190.5" x2="232.5" y1="628.2891" y2="628.2891"/><line style="stroke:#A80036;stroke-width:1.0;" x1="232.5" x2="232.5" y1="628.2891" y2="641.2891"/><line style="stroke:#A80036;stroke-width:1.0;" x1="191.5" x2="232.5" y1="641.2891" y2="641.2891"/><polygon fill="#A80036" points="201.5,637.2891,191.5,641.2891,201.5,645.2891,197.5,641.2891" style="stroke:#A80036;stroke-width:1.0;"/><text fill="#000000" font-family="sans-serif" font-size="13" lengthAdjust="spacing" textLength="120" x="197.5" y="623.2231">Terminate Process</text><line style="stroke:#A80036;stroke-width:2.0;" x1="176.5" x2="194.5" y1="632.2891" y2="650.2891"/><line style="stroke:#A80036;stroke-width:2.0;" x1="176.5" x2="194.5" y1="650.2891" y2="632.2891"/><polygon fill="#A80036" points="72.5,666.4219,62.5,670.4219,72.5,674.4219,68.5,670.4219" style="stroke:#A80036;stroke-width:1.0;"/><line style="stroke:#A80036;stroke-width:1.0;stroke-dasharray:2.0,2.0;" x1="66.5" x2="184.5" y1="670.4219" y2="670.4219"/><text fill="#000000" font-family="sans-serif" font-size="13" lengthAdjust="spacing" textLength="68" x="78.5" y="665.356">completed</text><rect fill="#EEEEEE" filter="url(#f1uq3zgi9fzswp)" height="3" style="stroke:#EEEEEE;stroke-width:1.0;" width="832" x="0" y="698.9883"/><line style="stroke:#000000;stroke-width:1.0;" x1="0" x2="832" y1="698.9883" y2="698.9883"/><line style="stroke:#000000;stroke-width:1.0;" x1="0" x2="832" y1="701.9883" y2="701.9883"/><rect fill="#EEEEEE" filter="url(#f1uq3zgi9fzswp)" height="23.1328" style="stroke:#000000;stroke-width:2.0;" width="170" x="331" y="688.4219"/><text fill="#000000" font-family="sans-serif" font-size="13" font-weight="bold" lengthAdjust="spacing" textLength="151" x="337" y="704.4888">Upgrade Application</text><polygon fill="#A80036" points="422.5,738.6875,412.5,742.6875,422.5,746.6875,418.5,742.6875" style="stroke:#A80036;stroke-width:1.0;"/><line style="stroke:#A80036;stroke-width:1.0;stroke-dasharray:2.0,2.0;" x1="416.5" x2="636.5" y1="742.6875" y2="742.6875"/><text fill="#000000" font-family="sans-serif" font-size="13" lengthAdjust="spacing" textLength="140" x="428.5" y="737.6216">Upgrade trigger (HAP)</text><path d="M448,755.6875 L448,840.6875 L823,840.6875 L823,765.6875 L813,755.6875 L448,755.6875 " fill="#FBFB77" filter="url(#f1uq3zgi9fzswp)" style="stroke:#A80036;stroke-width:1.0;"/><path d="M813,755.6875 L813,765.6875 L823,765.6875 L813,755.6875 " fill="#FBFB77" style="stroke:#A80036;stroke-width:1.0;"/><text fill="#000000" font-family="sans-serif" font-size="13" lengthAdjust="spacing" textLength="354" x="454" y="772.7544">The HAP file to deploy (and block number to deploy on)</text><text fill="#000000" font-family="sans-serif" font-size="13" lengthAdjust="spacing" textLength="338" x="454" y="787.8872">is determined by an arbitrary consensus mechanism</text><text fill="#000000" font-family="sans-serif" font-size="13" lengthAdjust="spacing" textLength="353" x="454" y="803.02">implemented in the blockchain. The content of the HAP</text><text fill="#000000" font-family="sans-serif" font-size="13" lengthAdjust="spacing" textLength="334" x="454" y="818.1528">file is distributed via a content netowrk coupled with</text><text fill="#000000" font-family="sans-serif" font-size="13" lengthAdjust="spacing" textLength="152" x="454" y="833.2856">the blockchain network.</text><polygon fill="#A80036" points="547.5,867.4844,557.5,871.4844,547.5,875.4844,551.5,871.4844" style="stroke:#A80036;stroke-width:1.0;"/><line style="stroke:#A80036;stroke-width:1.0;" x1="411.5" x2="553.5" y1="871.4844" y2="871.4844"/><text fill="#000000" font-family="sans-serif" font-size="13" lengthAdjust="spacing" textLength="120" x="418.5" y="866.4185">Terminate Process</text><line style="stroke:#A80036;stroke-width:2.0;" x1="555.5" x2="573.5" y1="892.4844" y2="910.4844"/><line style="stroke:#A80036;stroke-width:2.0;" x1="555.5" x2="573.5" y1="910.4844" y2="892.4844"/><line style="stroke:#A80036;stroke-width:1.0;" x1="411.5" x2="453.5" y1="930.6172" y2="930.6172"/><line style="stroke:#A80036;stroke-width:1.0;" x1="453.5" x2="453.5" y1="930.6172" y2="943.6172"/><line style="stroke:#A80036;stroke-width:1.0;" x1="412.5" x2="453.5" y1="943.6172" y2="943.6172"/><polygon fill="#A80036" points="422.5,939.6172,412.5,943.6172,422.5,947.6172,418.5,943.6172" style="stroke:#A80036;stroke-width:1.0;"/><text fill="#000000" font-family="sans-serif" font-size="13" lengthAdjust="spacing" textLength="131" x="418.5" y="925.5513">Shutdown Sequence</text><polygon fill="#A80036" points="201.5,968.75,191.5,972.75,201.5,976.75,197.5,972.75" style="stroke:#A80036;stroke-width:1.0;"/><line style="stroke:#A80036;stroke-width:1.0;" x1="195.5" x2="405.5" y1="972.75" y2="972.75"/><text fill="#000000" font-family="sans-serif" font-size="13" lengthAdjust="spacing" textLength="123" x="207.5" y="967.6841">Request Terminate</text><polygon fill="#A80036" points="389.5,997.8828,399.5,1001.8828,389.5,1005.8828,393.5,1001.8828" style="stroke:#A80036;stroke-width:1.0;"/><line style="stroke:#A80036;stroke-width:1.0;" x1="190.5" x2="395.5" y1="1001.8828" y2="1001.8828"/><text fill="#000000" font-family="sans-serif" font-size="13" lengthAdjust="spacing" textLength="120" x="197.5" y="996.8169">Terminate Process</text><line style="stroke:#A80036;stroke-width:2.0;" x1="397.5" x2="415.5" y1="1022.8828" y2="1040.8828"/><line style="stroke:#A80036;stroke-width:2.0;" x1="397.5" x2="415.5" y1="1040.8828" y2="1022.8828"/><line style="stroke:#A80036;stroke-width:1.0;" x1="190.5" x2="232.5" y1="1061.0156" y2="1061.0156"/><line style="stroke:#A80036;stroke-width:1.0;" x1="232.5" x2="232.5" y1="1061.0156" y2="1074.0156"/><line style="stroke:#A80036;stroke-width:1.0;" x1="191.5" x2="232.5" y1="1074.0156" y2="1074.0156"/><polygon fill="#A80036" points="201.5,1070.0156,191.5,1074.0156,201.5,1078.0156,197.5,1074.0156" style="stroke:#A80036;stroke-width:1.0;"/><text fill="#000000" font-family="sans-serif" font-size="13" lengthAdjust="spacing" textLength="139" x="197.5" y="1055.9497">Copy HAP to Archives</text><polygon fill="#A80036" points="394.5,1099.1484,404.5,1103.1484,394.5,1107.1484,398.5,1103.1484" style="stroke:#A80036;stroke-width:1.0;"/><line style="stroke:#A80036;stroke-width:1.0;" x1="190.5" x2="400.5" y1="1103.1484" y2="1103.1484"/><text fill="#000000" font-family="sans-serif" font-size="13" lengthAdjust="spacing" textLength="105" x="197.5" y="1098.0825">Delete Directory</text><polygon fill="#A80036" points="552.5,1128.2813,562.5,1132.2813,552.5,1136.2813,556.5,1132.2813" style="stroke:#A80036;stroke-width:1.0;"/><line style="stroke:#A80036;stroke-width:1.0;" x1="190.5" x2="558.5" y1="1132.2813" y2="1132.2813"/><text fill="#000000" font-family="sans-serif" font-size="13" lengthAdjust="spacing" textLength="105" x="197.5" y="1127.2153">Delete Directory</text><polygon fill="#A80036" points="394.5,1157.4141,404.5,1161.4141,394.5,1165.4141,398.5,1161.4141" style="stroke:#A80036;stroke-width:1.0;"/><line style="stroke:#A80036;stroke-width:1.0;" x1="190.5" x2="400.5" y1="1161.4141" y2="1161.4141"/><text fill="#000000" font-family="sans-serif" font-size="13" lengthAdjust="spacing" textLength="192" x="197.5" y="1156.3481">Deploy HAP Node to Directory</text><polygon fill="#A80036" points="552.5,1186.5469,562.5,1190.5469,552.5,1194.5469,556.5,1190.5469" style="stroke:#A80036;stroke-width:1.0;"/><line style="stroke:#A80036;stroke-width:1.0;" x1="190.5" x2="558.5" y1="1190.5469" y2="1190.5469"/><text fill="#000000" font-family="sans-serif" font-size="13" lengthAdjust="spacing" textLength="181" x="197.5" y="1185.481">Deploy HAP GUI to Directory</text><polygon fill="#A80036" points="389.5,1215.6797,399.5,1219.6797,389.5,1223.6797,393.5,1219.6797" style="stroke:#A80036;stroke-width:1.0;"/><line style="stroke:#A80036;stroke-width:1.0;" x1="190.5" x2="395.5" y1="1219.6797" y2="1219.6797"/><text fill="#000000" font-family="sans-serif" font-size="13" lengthAdjust="spacing" textLength="129" x="197.5" y="1214.6138">Launch Sub-Process</text><polygon fill="#A80036" points="547.5,1244.8125,557.5,1248.8125,547.5,1252.8125,551.5,1248.8125" style="stroke:#A80036;stroke-width:1.0;"/><line style="stroke:#A80036;stroke-width:1.0;" x1="411.5" x2="553.5" y1="1248.8125" y2="1248.8125"/><text fill="#000000" font-family="sans-serif" font-size="13" lengthAdjust="spacing" textLength="129" x="418.5" y="1243.7466">Launch Sub-Process</text><polygon fill="#A80036" points="422.5,1273.9453,412.5,1277.9453,422.5,1281.9453,418.5,1277.9453" style="stroke:#A80036;stroke-width:1.0;"/><line style="stroke:#A80036;stroke-width:1.0;stroke-dasharray:2.0,2.0;" x1="416.5" x2="563.5" y1="1277.9453" y2="1277.9453"/><text fill="#000000" font-family="sans-serif" font-size="13" lengthAdjust="spacing" textLength="37" x="428.5" y="1272.8794">ready</text><polygon fill="#A80036" points="196.5,1303.0781,186.5,1307.0781,196.5,1311.0781,192.5,1307.0781" style="stroke:#A80036;stroke-width:1.0;"/><line style="stroke:#A80036;stroke-width:1.0;stroke-dasharray:2.0,2.0;" x1="190.5" x2="405.5" y1="1307.0781" y2="1307.0781"/><text fill="#000000" font-family="sans-serif" font-size="13" lengthAdjust="spacing" textLength="37" x="202.5" y="1302.0122">ready</text><rect fill="#EEEEEE" filter="url(#f1uq3zgi9fzswp)" height="3" style="stroke:#EEEEEE;stroke-width:1.0;" width="832" x="0" y="1335.6445"/><line style="stroke:#000000;stroke-width:1.0;" x1="0" x2="832" y1="1335.6445" y2="1335.6445"/><line style="stroke:#000000;stroke-width:1.0;" x1="0" x2="832" y1="1338.6445" y2="1338.6445"/><rect fill="#EEEEEE" filter="url(#f1uq3zgi9fzswp)" height="23.1328" style="stroke:#000000;stroke-width:2.0;" width="95" x="368.5" y="1325.0781"/><text fill="#000000" font-family="sans-serif" font-size="13" font-weight="bold" lengthAdjust="spacing" textLength="76" x="374.5" y="1341.145">Ping Node</text><polygon fill="#A80036" points="389.5,1375.3438,399.5,1379.3438,389.5,1383.3438,393.5,1379.3438" style="stroke:#A80036;stroke-width:1.0;"/><line style="stroke:#A80036;stroke-width:1.0;" x1="185.5" x2="395.5" y1="1379.3438" y2="1379.3438"/><text fill="#000000" font-family="sans-serif" font-size="13" lengthAdjust="spacing" textLength="27" x="192.5" y="1374.2778">Ping</text><polygon fill="#A80036" points="196.5,1404.4766,186.5,1408.4766,196.5,1412.4766,192.5,1408.4766" style="stroke:#A80036;stroke-width:1.0;"/><line style="stroke:#A80036;stroke-width:1.0;" x1="190.5" x2="405.5" y1="1408.4766" y2="1408.4766"/><text fill="#000000" font-family="sans-serif" font-size="13" lengthAdjust="spacing" textLength="32" x="202.5" y="1403.4106">Pong</text><rect fill="#EEEEEE" filter="url(#f1uq3zgi9fzswp)" height="3" style="stroke:#EEEEEE;stroke-width:1.0;" width="832" x="0" y="1437.043"/><line style="stroke:#000000;stroke-width:1.0;" x1="0" x2="832" y1="1437.043" y2="1437.043"/><line style="stroke:#000000;stroke-width:1.0;" x1="0" x2="832" y1="1440.043" y2="1440.043"/><rect fill="#EEEEEE" filter="url(#f1uq3zgi9fzswp)" height="23.1328" style="stroke:#000000;stroke-width:2.0;" width="82" x="375" y="1426.4766"/><text fill="#000000" font-family="sans-serif" font-size="13" font-weight="bold" lengthAdjust="spacing" textLength="63" x="381" y="1442.5435">Ping GUI</text><polygon fill="#A80036" points="547.5,1476.7422,557.5,1480.7422,547.5,1484.7422,551.5,1480.7422" style="stroke:#A80036;stroke-width:1.0;"/><line style="stroke:#A80036;stroke-width:1.0;" x1="406.5" x2="553.5" y1="1480.7422" y2="1480.7422"/><text fill="#000000" font-family="sans-serif" font-size="13" lengthAdjust="spacing" textLength="27" x="413.5" y="1475.6763">Ping</text><polygon fill="#A80036" points="417.5,1505.875,407.5,1509.875,417.5,1513.875,413.5,1509.875" style="stroke:#A80036;stroke-width:1.0;"/><line style="stroke:#A80036;stroke-width:1.0;" x1="411.5" x2="563.5" y1="1509.875" y2="1509.875"/><text fill="#000000" font-family="sans-serif" font-size="13" lengthAdjust="spacing" textLength="32" x="423.5" y="1504.8091">Pong</text><!--MD5=[37026c053b7da9bee9f6b5b2d9e8a781]
@startuml
actor "Node Operator" as U
participant "Host" as H
participant "Node" as N
participant "GUI" as G
database "Blockchain" as B

== Open Application ==
U -> H : Launch Process
activate H
H -> N : Launch Sub-Process
activate N
N -> G : Launch Sub-Process
activate G
G - -> N : ready
deactivate G
N - -> H : ready
deactivate N
H - -> U : ready
deactivate H

== Exit Application ==
U -> G : Exit
activate G
G -> N: Request Terminate
deactivate G
activate N
N -> G : Terminate Process
activate G
destroy G
N -> N : Shutdown Sequence
N -> H : Request Terminate
deactivate N
activate H
H -> N : Terminate Process
activate N
destroy N
H -> H : Terminate Process
destroy H
H - -> U : completed

== Upgrade Application ==
B - -> N : Upgrade trigger (HAP)
note over B
  The HAP file to deploy (and block number to deploy on)
  is determined by an arbitrary consensus mechanism
  implemented in the blockchain. The content of the HAP
  file is distributed via a content netowrk coupled with
  the blockchain network. 
end note
activate N
N -> G : Terminate Process
activate G
destroy G
N -> N : Shutdown Sequence
N -> H : Request Terminate
deactivate N
activate H
H -> N : Terminate Process
activate N
destroy N
H -> H : Copy HAP to Archives
H -> N : Delete Directory
H -> G : Delete Directory
H -> N : Deploy HAP Node to Directory
H -> G : Deploy HAP GUI to Directory
H -> N : Launch Sub-Process
activate N
N -> G : Launch Sub-Process
activate G
G - -> N : ready
deactivate G
N - -> H : ready
deactivate N
deactivate H

== Ping Node ==
H -> N : Ping
activate N
N -> H : Pong
deactivate N

== Ping GUI ==
N -> G : Ping
activate G
G -> N : Pong
deactivate G
@enduml

PlantUML version 1.2021.9beta2(Unknown compile time)
(GPL source distribution)
Java Runtime: Java(TM) SE Runtime Environment
JVM: Java HotSpot(TM) 64-Bit Server VM
Default Encoding: UTF-8
Language: en
Country: US
--></g></svg>